<?xml version="1.0" encoding="UTF-8" standalone="no"?>
<!-- Created with Inkscape (http://www.inkscape.org/) -->

<svg
   xmlns:svg="http://www.w3.org/2000/svg"
   xmlns="http://www.w3.org/2000/svg"
   xmlns:sodipodi="http://sodipodi.sourceforge.net/DTD/sodipodi-0.dtd"
   xmlns:inkscape="http://www.inkscape.org/namespaces/inkscape"
   viewBox="0 0 120 70"
   width="120"
   height="70"
   xml:space="preserve"
   version="1.1"
   inkscape:version="0.92.3 (2405546, 2018-03-11)"
   sodipodi:docname="keinlogo.svg"><defs /><sodipodi:namedview
     pagecolor="#ffffff"
     bordercolor="#666666"
     borderopacity="1"
     objecttolerance="10"
     gridtolerance="10"
     guidetolerance="10"
     inkscape:pageopacity="0"
     inkscape:pageshadow="2"
     inkscape:window-width="1441"
     inkscape:window-height="722"
     id="namedview4"
     showgrid="false"
     inkscape:zoom="5.2010041"
     inkscape:cx="57.253291"
     inkscape:cy="27.810307"
     inkscape:window-x="0"
     inkscape:window-y="27"
     inkscape:window-maximized="0" /><path
     inkscape:connector-curvature="0"
     d="m 2.1581214,26.764529 c -0.2534555,-0.51396 -0.8062225,-0.8623 -1.362229,-0.5107 -0.3658975,0.23127 -0.554576,0.73967 -0.7958924,1.08551 0.2734424,0.94137 0.4363309,1.72518 0.7308875,2.45659 0.3251729,0.80703 1.097839,0.74926 1.7305398,0.5368 0.3223793,-0.10843 0.7765174,-0.67268 0.7148177,-0.91661 -0.2309687,-0.91259 -0.59943,-1.80272 -1.0181236,-2.65159 m 4.0863167,3.87834 c 0.2380732,0.13531 0.5448538,0.15124 1.0530468,0.28136 0.2745023,-0.20056 0.9734125,-0.48268 0.9660186,-0.74484 -0.035522,-1.25306 -0.035599,-2.58115 -1.0289152,-3.56474 -0.6697206,-0.66328 -1.9311296,-0.36427 -2.226887,0.48651 -0.2737493,0.78746 0.5235021,3.13657 1.2367368,3.54171 M 46.357652,10.156649 c 0.626265,-0.13281 1.259865,-0.2391401 1.877441,-0.4040001 1.186119,-0.31705 1.486316,-1.42731 0.622017,-2.31879 -0.702326,-0.7245 -1.580911,-0.88437 -2.566061,-0.75578 -2.398878,0.31302 -2.453899,0.41052 -1.313341,2.5276 0.301356,0.55964 0.557537,1.1290701 1.379944,0.9509701 m 12.003657,42.68303 c -2.086518,1.31181 -4.236551,2.52301 -6.342761,3.8047 -0.647306,0.3938 -0.992872,0.33674 -1.259672,-0.4286 -0.534949,-1.53441 -1.142487,-3.04429 -1.732651,-4.55949 -0.20174,-0.51834 -0.218537,-0.9306 0.427999,-1.12483 2.82707,-0.84906 5.649314,-1.78179 8.659591,-1.52577 1.144999,0.0975 2.269726,0.42894 3.563374,0.68535 -0.932447,1.55053 -2.108526,2.38959 -3.31588,3.14864 z M 47.98258,45.716159 c -1.2867,0.784 -1.387665,0.70896 -2.071653,-0.62604 -0.79731,-1.55591 -1.589599,-3.11392 -2.480153,-4.85964 4.830574,-1.40735 9.564816,-2.34892 14.48323,-1.86509 0.04749,0.13243 0.09498,0.26486 0.142474,0.39766 -1.060055,0.86269 -2.062965,1.80963 -3.19252,2.5704 -2.254282,1.51906 -4.558756,2.96787 -6.881378,4.38271 z m 0.65001,-15.5268 c -0.204057,-0.39228 -0.303479,-0.84713 -0.397688,-1.28452 -0.126452,-0.58671 -0.271434,-1.18262 -0.286299,-1.77758 -0.06216,-2.46829 0.08436,-4.90799 1.118935,-7.21834 0.169502,-0.37866 0.131277,-0.84944 0.209463,-1.42923 0.825302,0.0413 1.717593,0.0299 2.58556,0.1687 0.21622,0.0345 0.49827,0.55042 0.505799,0.85097 0.08823,3.50813 0.11313,7.0176 0.19151,10.52572 0.03127,1.39584 0.153476,2.78976 0.244212,4.35469 -0.710049,0.0681 -1.494426,0.14336 -2.294629,0.22013 0.01853,-0.37559 0.136295,-0.70032 0.02818,-0.9099 -0.608889,-1.18031 -1.292489,-2.32224 -1.905047,-3.50064 z m -8.129853,19.23145 c -0.570085,-0.18808 -1.135732,-0.39113 -1.711608,-0.55983 -0.490549,-0.14375 -0.993452,-0.24585 -1.489792,-0.36983 -1.85717,-0.46407 -1.859294,-0.46503 -1.385929,-2.38213 0.133207,-0.54025 0.284175,-1.07648 0.486688,-1.83918 1.528207,1.80464 2.861432,3.37878 4.194657,4.95291 -0.03147,0.066 -0.06274,0.13204 -0.09402,0.19806 z m 79.438463,4.37099 c -0.67453,-1.04058 -1.29635,-2.17082 -2.19617,-2.98704 -0.44673,-0.40515 -1.44944,-0.20594 -2.20119,-0.27618 -0.1919,-0.0176 -0.38572,-0.0305 -0.5782,-0.0271 -4.17342,0.0729 -8.35804,-0.0175 -12.51718,0.26428 -5.6746,0.38401 -11.330478,1.04403 -16.992146,1.60908 -0.670087,0.0668 -0.991134,-0.0706 -1.100789,-0.79768 -0.329155,-2.17942 -0.678389,-4.35887 -1.116812,-6.51875 -0.678968,-3.34787 -1.34114,-6.70515 -2.222622,-10.00216 -0.264482,-0.98858 -1.191523,-1.8292 -1.91528,-2.65043 -0.181661,-0.20593 -0.750782,-0.0743 -1.141907,-0.0979 -0.0064,0.33164 -0.07954,0.67863 -0.0062,0.99185 0.181857,0.77671 0.514874,1.52481 0.639007,2.30747 0.870091,5.49143 1.684969,10.99112 2.566061,16.48045 0.129347,0.80591 -0.07703,1.11118 -0.846343,1.36744 -0.819511,0.2731 -1.187471,-0.0944 -1.587863,-0.64985 -0.809857,-1.12431 -1.124535,-1.2642 -2.436523,-0.80112 -1.176081,0.41519 -2.339225,0.89416 -3.450824,1.45636 -2.401388,1.21405 -4.745246,2.54161 -7.160727,3.72574 -0.600589,0.29441 -1.383998,0.21973 -2.116056,0.31915 0.06873,-2.84216 3.066071,-5.23923 5.600664,-4.73679 0.400007,0.0793 0.863721,0.1384 1.22666,0.009 0.285719,-0.10211 0.706961,-0.59271 0.64692,-0.76731 -0.537072,-1.56014 -1.038817,-3.09186 -2.825138,-3.863 -2.283239,-0.98551 -3.378622,-2.47463 -2.48691,-4.93237 0.427612,-1.17859 1.188821,-2.23607 1.787286,-3.35478 0.464678,-0.86902 1.161407,-0.82641 1.879757,-0.43317 1.256197,0.68785 2.019529,1.69543 2.132465,3.19357 0.04518,0.6009 0.341897,1.22062 0.664104,1.74706 0.157916,0.25755 0.714103,0.51684 0.949626,0.42395 0.30155,-0.11899 0.635532,-0.58766 0.644799,-0.91431 0.01776,-0.62087 -0.04189,-1.32195 -0.323557,-1.85818 -0.786886,-1.49756 -1.593654,-3.00721 -2.59251,-4.36697 -1.772422,-2.41341 -5.293903,-2.22283 -6.980608,0.304 -1.58651,2.37637 -1.95891,4.8888 -0.728582,7.54518 0.47742,1.03024 0.948662,2.06335 1.422607,3.09512 -0.08378,0.0808 -0.167761,0.16159 -0.25174,0.2422 -0.854839,-0.8268 -1.60987,-1.80636 -2.591352,-2.43893 -1.075114,-0.69303 -2.358917,-1.06555 -3.624959,-1.60888 0.208112,-0.17868 0.423944,-0.35448 0.628967,-0.54198 0.850785,-0.77863 1.741727,-1.52021 2.533823,-2.3543 0.685724,-0.72162 1.185733,-1.66203 0.699239,-2.62298 -0.630126,-1.24538 -1.450988,-2.40036 -2.250808,-3.55265 -0.199616,-0.2875 -0.612943,-0.46177 -0.961984,-0.60762 -1.498863,-0.62605 -1.495389,-0.67173 -1.56431,-2.26986 -0.137839,-3.19088 -0.361586,-6.37811 -0.48881,-9.56937 -0.06892,-1.73132 -0.01235,-3.46763 -0.01235,-5.34231 0.263711,0.19863 0.402708,0.27617 0.507344,0.38614 3.847548,4.05011 7.050878,8.53665 9.412885,13.60739 0.216218,0.46388 0.701362,0.89378 1.168742,1.13023 0.618542,0.31302 1.332839,0.47769 2.025127,0.59284 0.425103,0.0708 1.091328,0.0875 1.27917,-0.15488 0.24151,-0.31168 0.236297,-0.93926 0.123361,-1.37588 -0.801171,-3.09223 -1.683037,-6.16374 -2.488842,-9.25482 -1.111599,-4.26467 -0.955419,-8.61706 -0.849627,-12.9658001 0.0071,-0.29594 -0.150581,-0.76845 -0.366992,-0.86748 -0.984764,-0.45063 -1.995976,-0.88015 -3.041167,-1.15306 -0.751361,-0.19596 -1.054069,0.22973 -0.95175,0.98954 0.101932,0.75655 0.199423,1.5182901 0.222203,2.2800201 0.07664,2.5537 0.10174,5.10913 0.184367,7.66264 0.02703,0.83352 0.170465,1.66319 0.279734,2.66847 -0.321434,-0.30515 -0.505028,-0.47538 -0.683796,-0.65023 -1.762768,-1.72383 -3.557196,-3.41734 -5.276912,-5.18244 -1.334191,-1.36936 -3.008348,-2.01191 -4.792159,-2.46695 -0.64866,-0.16563 -1.239787,-0.042 -1.13882,0.79877 0.107336,0.89532 -0.353287,1.07015 -1.066425,0.98513 -2.194822,-0.26139 -4.385782,-0.55561 -6.581954,-0.80645 -0.420276,-0.0478 -0.856576,0.0451 -1.285539,0.0729 0.04807,0.44871 -0.04537,0.98609 0.171623,1.32886 0.558117,0.8815 1.25388,1.67663 2.027829,2.67845 -0.875495,1.91211 -1.0921,4.28982 -1.244805,6.68807 -0.02973,0.46541 -0.211007,1.08953 -0.548077,1.33922 -1.983043,1.4682 -3.993691,2.90895 -6.080595,4.22476 -0.798661,0.5036 -1.823388,0.65292 -2.597916,0.91393 -0.492672,-1.02256 -0.832639,-1.83899 -1.26971,-2.60034 -0.346338,-0.60282 -0.317379,-1.01066 0.244984,-1.47223 1.342297,-1.10086 2.839812,-1.35438 4.523234,-1.11103 0.544024,0.0787 1.138048,-0.18539 1.7091,-0.29268 -0.110427,-0.45773 -0.209849,-0.91834 -0.336491,-1.37166 -0.05058,-0.18175 -0.189964,-0.33931 -0.238421,-0.52106 -0.24981,-0.93658 -0.877814,-1.49468 -1.719138,-1.94455 -0.639971,-0.34219 -1.245193,-0.80875 -1.747325,-1.3325 -0.916228,-0.95539 -0.278575,-3.30546 0.971831,-3.76876 0.116411,-0.0432 0.252126,-0.051 0.378384,-0.0484 1.182835,0.0261 2.022424,1.02063 2.202928,2.19961 0.128381,0.83907 0.505413,1.70637 1.003684,2.39479 0.241509,0.33375 1.020672,0.37981 1.54732,0.35601 0.167956,-0.007 0.498463,-0.70281 0.427999,-1.00931 -0.575685,-2.50515 -1.38033,-4.86213 -3.732489,-6.40172 -1.821842,-1.19241 -4.11126,-0.43106 -5.211275,0.47308 -1.166235,0.95884 -1.411412,2.72029 -0.700398,4.52685 0.151934,0.38614 0.340545,0.75808 0.516031,1.13502 0.265642,0.57039 0.534372,1.13905 0.80233,1.70982 -0.870284,0.39689 -1.697516,0.68497 -2.426293,1.13157 -0.756189,0.4633 -1.417203,1.07994 -2.061807,1.58431 -2.455056,-1.56205 -4.887525,-3.10989 -7.35378,-4.67923 0.211201,-0.11669 0.408887,-0.21783 0.598851,-0.33202 2.583438,-1.55303 5.27402,-2.95808 7.717879,-4.70418 2.424553,-1.73247 2.294821,-1.92497 0.724719,-4.31074 -0.01757,-0.0265 -0.03996,-0.0501 -0.06119,-0.0741 -0.666228,-0.7625 -1.156776,-0.72873 -1.971074,-0.11592 -1.811996,1.36379 -3.673607,2.66233 -5.522862,3.97622 -0.161586,0.11457 -0.382053,0.14682 -0.733024,0.27502 0.436687,-0.87362 0.779741,-1.59314 1.151561,-2.29768 1.492494,-2.8279501 2.929004,-5.6881501 4.518023,-8.4618001 0.844607,-1.47414 0.974532,-1.7031 0.04518,-3.09472 -0.08861,-0.13243 -0.254637,-0.23471997 -0.293635,-0.37577997 -0.305022,-1.10643 -1.054841,-0.89359 -1.826281,-0.62855 -0.182242,0.0628 -0.356571,0.14874 -0.53939,0.20881 -4.513191,1.48354997 -9.01849,2.99185997 -13.544988,4.43414997 -1.793734,0.57154 -3.6507313,0.94598 -5.4496003,1.5037 -1.4190175,0.43988 -1.8830979,1.15191 -1.8953955,2.52606 -0.02556,2.8523301 1.6105649,4.6013101 3.9646161,5.8570501 0.5463407,0.29134 1.2075477,0.40668 1.5089807,-0.25046 0.270351,-0.58939 0.178863,-1.20065 -0.514912,-1.65148 -0.6913035,-0.44909 -1.2862933,-1.05076 -1.8982524,-1.6129 -0.5851246,-0.53738 -0.4772852,-0.99876 0.2429768,-1.3033401 0.530066,-0.22435 1.064881,-0.44832 1.6159896,-0.61107 4.342943,-1.28376 8.690093,-2.55351 13.036762,-3.82499 0.257533,-0.0752 0.52163,-0.12897 0.912755,-0.22455 -0.142087,0.31686 -0.20676,0.49497 -0.297301,0.65868 -1.268553,2.29614 -2.46278,4.6375801 -3.83558,6.8701901 -1.161524,1.8887 -1.837055,4.08965 -3.565266,5.62694 -0.09562,0.0852 -0.07141,0.29747 -0.115524,0.44717 -0.151663,0.51397 -0.245776,1.05595 -0.474564,1.53403 -1.255598,2.62317 -2.571312,5.21833 -3.794188,7.85609 -0.186335,0.40189 -0.129095,1.03158 0.05054,1.45803 0.28097,0.66788 0.687521,1.3231 1.187123,1.84551 0.299985,0.31341 0.905998,0.5464 1.322703,0.48249 0.421417,-0.0647 0.973489,-0.46138 1.132313,-0.84887 0.932545,-2.27426 1.754893,-4.59305 2.642705,-6.88593 0.225255,-0.58191 0.553445,-1.12447 0.852175,-1.72077 3.177463,1.35439 6.206659,2.74716 8.88334,4.77961 0.414484,0.31494 0.767,0.76307 1.025498,1.21831 0.832445,1.46589 1.498672,3.036 2.433435,4.4305 1.017388,1.51752 2.554285,2.28942 4.451612,2.22321 2.572238,-0.0898 4.651035,-1.33558 6.644887,-2.78151 0.792484,-0.57442 1.569908,-1.16918 2.29521,-1.71059 1.276661,1.411 2.447526,2.70493 3.632486,4.01422 -0.316413,0.0582 -0.691901,0.11726 -1.063336,0.19652 -2.417797,0.5157 -4.841386,1.00682 -7.248565,1.56819 -1.037081,0.24182 -1.221061,0.68746 -0.836305,1.69831 0.169693,0.44545 0.426453,0.85808 0.645376,1.28491 1.561026,3.04406 3.138657,6.07968 4.672849,9.13717 0.414873,0.82699 0.697502,1.71923 1.124535,2.79132 -0.286491,-0.20616 -0.373171,-0.2486 -0.433211,-0.31479 -3.506231,-3.86872 -7.025782,-7.72576 -10.495139,-11.62713 -0.439582,-0.49458 -0.895767,-0.69418 -1.404847,-0.47693 -0.333211,0.14222 -0.656381,0.58383 -0.753487,0.95136 -0.586302,2.2234 -1.125115,4.45986 -1.636705,6.70169 -0.146527,0.64178 -0.365063,0.94713 -1.100596,0.81297 -0.625686,-0.11438 -1.283416,-0.0441 -1.925317,-0.0825 -1.146544,-0.0683 -1.485545,0.91162 -1.057931,1.68794 0.58688,1.06574 1.049244,2.40573 2.663166,2.57098 -0.482632,2.17178 -0.984957,4.24759 -1.38728,6.34224 -0.144981,0.75561 -0.443249,0.98148 -1.202526,0.98321 -3.191362,0.007 -6.362065,0.25221 -9.453561,1.11735 -0.814608,0.22819 -1.623615,0.47537 -2.435269,0.71377 -0.07382,-0.0691 -0.147571,-0.13801 -0.221413,-0.20691 0.476147,-0.95076 0.897775,-1.93322 1.437126,-2.84719 3.204084,-5.42827 6.451625,-10.83121 9.648969,-16.26315 1.232259,-2.09367 2.404863,-4.224 3.526693,-6.37792 0.260816,-0.50092 0.614876,-1.32215 0.260237,-1.74821 -1.516625,-1.82383 -1.436701,-1.87181 -2.948499,-1.87181 -0.305604,0 -1.98285,2.88227 -1.911613,2.96844 -0.227996,0.42971 -0.427226,0.87766 -0.688235,1.28664 -3.009891,4.71838 -6.029492,9.43062 -9.045947,14.14516 -2.98825,4.6704 -5.7379836,9.45441 -7.6878972,14.67428 -0.4778066,1.27935 -0.4039058,2.27442 0.3057187,3.31484 0.3594072,0.52703 0.7469612,1.0456 1.1889371,1.50411 0.8627924,0.8949 2.2227554,0.76093 3.0504714,-0.17003 0.545066,-0.6128 1.158686,-1.18991 1.825414,-1.66723 3.218176,-2.30419 6.887575,-3.37513 10.786861,-3.75686 1.978217,-0.19365 3.930755,-0.42815 5.830591,0.61895 0.978007,0.53931 2.168759,-0.45372 2.144242,-1.59506 -0.01641,-0.76423 -0.217379,-1.55149 -0.08996,-2.28633 0.436107,-2.51747 1.005807,-5.01131 1.469906,-7.52391 0.158498,-0.85907 0.596921,-1.04155 1.3506,-0.82278 2.185168,0.63491 4.489065,1.02048 6.521529,1.97604 1.995783,0.93846 3.736349,2.42891 5.545257,3.73632 0.590742,0.42702 0.562363,0.95809 -0.179154,1.32364 -2.844831,1.40239 -5.677306,2.82957 -8.532367,4.21057 -0.474333,0.22956 -0.814299,0.4601 -0.595955,0.99281 0.49074,1.19682 1.002331,2.38733 1.572802,3.54785 0.115447,0.23473 0.510626,0.39711 0.807155,0.46946 1.292105,0.31517 2.745602,-0.28061 3.533452,-1.35611 0.179153,-0.24434 0.458307,-0.43505 0.7253,-0.59421 3.194064,-1.9004 6.397008,-3.78618 9.592424,-5.68409 1.868947,-1.11007 3.729208,-2.23492 5.688503,-3.41028 0.473752,0.81162 0.918353,1.54174 1.332067,2.28851 1.015073,1.83284 2.626294,2.42338 4.624393,2.22989 2.084587,-0.20204 3.836159,-1.21158 5.5802,-2.2535 1.811998,-1.08247 3.640597,-2.13721 5.58638,-3.27705 0.493249,0.83927 0.892677,1.45589 1.229555,2.10437 1.075112,2.06968 2.570502,3.8191 4.241569,5.41661 0.298461,0.28518 0.961598,0.42912 1.354653,0.30917 0.337651,-0.10286 0.73341,-0.6667 0.751749,-1.0435 0.08475,-1.74896 0.09923,-3.5054 0.02934,-5.25495 -0.03108,-0.77924 0.101933,-1.20409 0.952719,-1.30005 1.244805,-0.14013 2.475712,-0.41173 3.72187,-0.5274 6.78601,-0.62893 13.568741,-1.31662 20.366141,-1.79349 2.78904,-0.1956 5.64082,-0.29809 8.3787,0.68971 0.3222,0.1165 0.85793,-0.14851 1.19924,-0.37747 0.16313,-0.10901 0.24055,-0.637 0.11989,-0.82338"
     style="fill:#231f20;fill-opacity:1;fill-rule:nonzero;stroke:none;stroke-width:0.01924863"
     id="path20" /></svg>